# xmcd
#
# Track frame offsets:
# 150
# 2852
# 18274
# 31495
# 53371
# 66545
# 81711
# 99726
# 115152
# 134899
# 152579
# 164471
#
# Disc length: 2330 seconds
#
#
# Revision: 0
# Processed by: cddbd v1.5.2PL0 Copyright (c) Steve Scherf et al.
# Submitted via: FreeRIP 2.95 
#
DISCID=a309180c
DTITLE=Ton Carfi e Jessé - Caminhos
DYEAR=2007
DGENRE=Hip-Hop
TTITLE0=Introdução
TTITLE1=Entre no Clima
TTITLE2=Cante
TTITLE3=Caminhos
TTITLE4=Nada Vai me Separar
TTITLE5=Melhor de Deus
TTITLE6=Preparar, Apontar, Fogo
TTITLE7=O Céu é a Festa
TTITLE8=Morador de Rua
TTITLE9=Uma Canção para Carla
TTITLE10=Não vou Parar
TTITLE11=Preparar, Apontar, Fogo (Remix)
EXTD=
EXTT0=
EXTT1=
EXTT2=
EXTT3=
EXTT4=
EXTT5=
EXTT6=
EXTT7=
EXTT8=
EXTT9=
EXTT10=
EXTT11=
PLAYORDER=
